<svg xmlns="http://www.w3.org/2000/svg" viewBox="0 0 32 32">
  <!-- Blue gradient background circle -->
  <defs>
    <linearGradient id="bg" x1="0%" y1="0%" x2="100%" y2="100%">
      <stop offset="0%" style="stop-color:#0EA5E9"/>
      <stop offset="100%" style="stop-color:#2563EB"/>
    </linearGradient>
  </defs>
  <rect width="32" height="32" rx="8" fill="url(#bg)"/>
  <!-- Tooth shape -->
  <path
    d="M16 5C13.8 5 12.1 6.3 11 7.9C9.9 6.3 7.8 6 7.8 8.5C7.8 11 9.5 13.5 10.3 16C11.1 18.5 11.5 21 12.7 21C13.5 21 13.9 19.5 14.3 18C14.7 16.5 15.1 16 16 16C16.9 16 17.3 16.5 17.7 18C18.1 19.5 18.5 21 19.3 21C20.5 21 20.9 18.5 21.7 16C22.5 13.5 24.2 11 24.2 8.5C24.2 6 22.1 6.3 21 7.9C19.9 6.3 18.2 5 16 5Z"
    fill="white"
    opacity="0.95"
  />
</svg>